<?xml version="1.0" standalone="no"?><!DOCTYPE svg PUBLIC "-//W3C//DTD SVG 1.1//EN" "http://www.w3.org/Graphics/SVG/1.1/DTD/svg11.dtd"><svg t="1620963074197" class="icon" viewBox="0 0 1024 1024" version="1.1" xmlns="http://www.w3.org/2000/svg" p-id="30724" xmlns:xlink="http://www.w3.org/1999/xlink" width="200" height="200"><defs><style type="text/css"></style></defs><path d="M877.312 286.72a32.416 32.416 0 0 0-45.344 0.48l-95.264 95.2c-21.696 21.376-56.544 21.248-85.824-8.064-29.312-29.312-29.376-64.64-8.256-85.76l95.072-95.04c12.928-12.896 12.16-33.568 0.448-45.28a29.632 29.632 0 0 0-11.328-7.072 254.688 254.688 0 0 0-327.264 312.416 1.152 1.152 0 0 1-0.448 1.28l-206.08 156.16a390.72 390.72 0 0 0-15.872 12.544c-62.176 62.176-69.76 155.328 0 225.12 69.792 69.792 162.688 61.888 224.832-0.256l1.792-2.08c18.88-23.168 167.552-219.744 167.552-219.744a1.088 1.088 0 0 1 1.184-0.384 254.656 254.656 0 0 0 311.776-328.256 29.024 29.024 0 0 0-6.976-11.232z m-43.008 88.64a191.68 191.68 0 0 1-55.68 141.216 190.464 190.464 0 0 1-187.904 48.32l-43.744-12.192-191.936 252.16c-27.424 36.8-85.344 48.512-133.952-0.096-46.944-46.944-37.504-102.528-4-131.232l256.32-195.488-12.448-42.464a190.4 190.4 0 0 1 48.128-188.384 189.28 189.28 0 0 1 140.352-55.904L597.44 243.296a115.296 115.296 0 0 0-33.408 89.408c2.144 31.808 16.544 61.824 41.6 86.88 52.224 52.192 127.872 55.808 176.352 8.064l52.352-52.288zM288 784a48 48 0 1 0 0-96 48 48 0 0 0 0 96z" p-id="30725"></path></svg>