<?xml version="1.0" standalone="no"?><!DOCTYPE svg PUBLIC "-//W3C//DTD SVG 1.1//EN" "http://www.w3.org/Graphics/SVG/1.1/DTD/svg11.dtd"><svg t="1620961184332" class="icon" viewBox="0 0 1251 1024" version="1.1" xmlns="http://www.w3.org/2000/svg" p-id="28030" xmlns:xlink="http://www.w3.org/1999/xlink" width="244.3359375" height="200"><defs><style type="text/css"></style></defs><path d="M1122.24256 1002.06592c-6.784-0.09216-13.32736-2.97472-18.41664-8.13568l-47.21664-48.28672c-103.6544-103.21408-257.57696-103.21408-361.23136 0l-47.21664 48.28672c-10.68544 10.7264-26.624 10.7264-37.30432 0l-47.22176-48.28672c-103.64928-103.21408-257.57184-103.21408-361.22112 0l-51.9424 50.45248c-11.66336 11.98592-29.57312 10.83904-40.00256-2.55488-4.67456-6.01088-7.2448-13.79328-7.21408-21.85728V315.27424c0-17.97632 12.68736-32.55296 28.33408-32.55296 15.64672 0 28.32896 14.57664 28.32896 32.55296v582.63552c125.08672-124.44672 310.74304-124.44672 435.83488 0l29.7472 29.83424 29.7472-29.83424c125.09184-124.44672 310.73792-124.44672 435.82976 0V315.27424c-0.02048-17.97632 12.66176-32.5632 28.30848-32.57856 15.6416-0.01536 28.33408 14.54592 28.34944 32.52224V969.51808c0 17.97632-12.68224 32.54784-28.32896 32.54784h2.83648z" fill="#515151" p-id="28031"></path><path d="M626.9184 800.26112c-7.97696 0.03584-15.68768-3.24608-21.72416-9.22624L568.832 754.688c-73.29792-72.99072-182.15424-72.99072-255.45216 0l-36.36224 36.34688c-13.52704 14.08512-34.432 12.90752-46.68928-2.6368-5.632-7.1424-8.69376-16.48128-8.56064-26.12224V257.22368c0.27136-131.31776 93.0048-237.60896 207.30368-237.60896h24.08448c114.29888 0 207.03232 106.29632 207.28832 237.60896v504.51968c0.0512 14.94016-7.52128 28.52864-19.35872 34.71872a29.19424 29.19424 0 0 1-14.16704 3.79904z m-186.04032-176.86016c54.52288-0.68608 107.86304 18.28864 152.51456 54.25152V257.22368c0-89.8816-63.42144-162.74432-141.65504-162.74432h-22.66624c-78.2336 0-141.65504 72.86272-141.65504 162.74432v422.05696c44.73856-36.7616 98.4576-56.32 153.46176-55.87968z" fill="#515151" p-id="28032"></path><path d="M626.9184 800.26112a28.94336 28.94336 0 0 1-13.696-3.26144c-11.84256-6.18496-19.41504-19.77344-19.36384-34.71872V257.22368c0.256-131.10272 92.70272-237.312 206.8224-237.60896h24.07936c114.10944 0.30208 206.56128 106.50624 206.81728 237.60896v504.51968c0.29696 20.97152-14.25408 38.25152-32.512 38.58432-8.38656 0.1536-16.51712-3.3536-22.7328-9.8304l-36.35712-36.352c-73.29792-72.99584-182.14912-72.99584-255.45216 0l-36.36736 36.352c-5.8368 6.05184-13.36832 9.51808-21.23776 9.76384z m173.76768-705.23904c-78.23872 0-141.65504 72.86272-141.65504 162.74944v422.05696c91.29472-75.24864 214.20032-75.24864 305.50528 0v-422.6048c0-89.8816-63.43168-162.74432-141.66528-162.74432l-22.18496 0.54272z" fill="#515151" p-id="28033"></path></svg>