<?xml version="1.0" standalone="no"?><!DOCTYPE svg PUBLIC "-//W3C//DTD SVG 1.1//EN" "http://www.w3.org/Graphics/SVG/1.1/DTD/svg11.dtd"><svg t="1620961091120" class="icon" viewBox="0 0 1024 1024" version="1.1" xmlns="http://www.w3.org/2000/svg" p-id="24002" xmlns:xlink="http://www.w3.org/1999/xlink" width="200" height="200"><defs><style type="text/css"></style></defs><path d="M511.15 63.855c-246.39 0-446.143 199.686-446.143 446.078 0 246.386 199.754 446.106 446.142 446.106 246.357 0 446.077-199.72 446.077-446.106 0-246.392-199.72-446.078-446.077-446.078z m223.108 495.311h-236.87c-5.01 0-9.819-0.997-14.23-2.87-13.09-5.543-22.317-18.54-22.317-33.669V285.755c0-20.205 16.368-36.575 36.547-36.575 20.247 0 36.614 16.37 36.614 36.575v200.257h200.256c20.212 0 36.575 16.368 36.575 36.58 0 20.206-16.368 36.574-36.575 36.574z m0 0" p-id="24003"></path></svg>