<?xml version="1.0" standalone="no"?><!DOCTYPE svg PUBLIC "-//W3C//DTD SVG 1.1//EN" "http://www.w3.org/Graphics/SVG/1.1/DTD/svg11.dtd"><svg t="1620961226476" class="icon" viewBox="0 0 1024 1024" version="1.1" xmlns="http://www.w3.org/2000/svg" p-id="29790" xmlns:xlink="http://www.w3.org/1999/xlink" width="200" height="200"><defs><style type="text/css"></style></defs><path d="M828.93 526.99c0-19.2-8.85-36.77-24.28-48.21L546.22 287.3c-21.37-15.83-50.07-15.83-71.44 0L216.35 478.79c-15.43 11.43-24.28 29-24.28 48.21s8.85 36.78 24.28 48.21l10.61 7.86-10.61 7.86c-15.43 11.43-24.28 29-24.28 48.21 0 19.2 8.85 36.77 24.28 48.21l258.43 191.48c10.68 7.92 23.2 11.88 35.72 11.87 12.52 0 25.04-3.96 35.72-11.87l258.43-191.48c15.43-11.43 24.28-29 24.28-48.21s-8.85-36.78-24.28-48.21l-10.61-7.86 10.61-7.86c15.43-11.44 24.28-29.01 24.28-48.22zM510.5 335.51L768.93 527 510.51 718.49l-0.01-0.01L252.07 527 510.5 335.51z m258.43 303.63L510.5 830.62 252.07 639.13l25.28-18.73 197.43 146.28c10.68 7.92 23.2 11.87 35.72 11.87s25.04-3.96 35.72-11.87L743.65 620.4l25.28 18.74z" fill="#333333" p-id="29791"></path><path d="M837.73 362.71L546.3 145.23c-0.03-0.02-0.05-0.04-0.08-0.06-21.37-15.83-50.08-15.83-71.44 0-0.03 0.02-0.06 0.05-0.09 0.07L186.26 360.72c-13.27 9.92-16 28.71-6.08 41.99 9.92 13.27 28.72 15.99 41.99 6.08L510.5 193.38 801.85 410.8a29.874 29.874 0 0 0 17.92 5.96c9.14 0 18.18-4.17 24.07-12.06 9.9-13.28 7.17-32.08-6.11-41.99z" fill="#333333" p-id="29792"></path></svg>