<?xml version="1.0" standalone="no"?><!DOCTYPE svg PUBLIC "-//W3C//DTD SVG 1.1//EN" "http://www.w3.org/Graphics/SVG/1.1/DTD/svg11.dtd"><svg t="1620961018580" class="icon" viewBox="0 0 1024 1024" version="1.1" xmlns="http://www.w3.org/2000/svg" p-id="22045" xmlns:xlink="http://www.w3.org/1999/xlink" width="200" height="200"><defs><style type="text/css"></style></defs><path d="M809.102167 1023.997953 605.175657 1023.997953 605.175657 717.214335c0-17.388955-15.75679-31.548372-35.136066-31.548372L453.953246 685.665962c-19.35574 0-35.11253 14.159417-35.11253 31.548372l0 306.784642L214.914206 1023.998977c-55.945917 0-101.474629-43.121908-101.474629-96.123787L113.439577 554.882967 41.521976 554.882967c-16.852746 0-31.822617-9.761269-38.115919-24.862123-6.126504-14.647532-2.908222-30.845365 8.414605-42.275638L482.295616 13.005133c15.44673-15.565433 43.955898-15.554176 59.402628-0.01228l470.47393 474.752352c11.322827 11.405714 14.541108 27.603547 8.438141 42.251079-6.293302 15.12439-21.263173 24.885659-38.139455 24.885659l-71.893041 0 0 372.992222C910.577819 980.877069 865.048084 1023.997953 809.102167 1023.997953zM510.041402 40.488954 39.567471 515.23005l112.916158 0.607841 0 412.037299c0 31.465485 28.008774 57.077688 62.429553 57.077688l164.881434 0L379.794616 717.214335c0-38.926373 33.253192-70.593449 74.157606-70.593449l116.087368 0c40.904414 0 74.181142 31.668099 74.181142 70.593449l0 267.738543 164.881434 0c34.420779 0 62.429553-25.613226 62.429553-57.077688L871.53172 515.837891l112.892622-0.607841L513.951435 40.488954" p-id="22046"></path></svg>